<svg width="52" height="52" viewBox="0 0 52 52" fill="none" xmlns="http://www.w3.org/2000/svg">
<path d="M26 0C11.6366 0 0 11.6366 0 26C0 40.3634 11.6366 52 26 52C40.3634 52 52 40.3634 52 26C52 11.6366 40.3634 0 26 0ZM15.0816 16.64C16.7148 16.64 17.9855 17.8311 18.1285 19.2384C18.2829 20.5075 17.7564 21.6174 16.3524 22.2852C15.6065 22.6574 15.3108 22.6574 15.158 22.4364C15.0816 22.2853 15.158 22.1423 15.3091 21.9879C16.6481 20.8813 16.6481 19.9843 16.4937 18.7233C16.4174 17.9026 15.8259 17.3842 15.2327 17.3842C12.6262 17.3842 8.91963 23.1741 9.43475 27.4138C9.66388 29.0469 10.6291 30.9774 12.7026 30.9774C13.3721 30.9774 14.118 30.7564 14.7842 30.4623C15.8681 29.8854 16.5198 29.4466 17.1633 28.7267C17.0024 26.8044 18.6859 24.2921 21.1737 24.2921C22.2917 24.2921 23.1806 24.7406 23.2554 25.5612C23.4 26.6711 22.4347 26.8223 22.139 26.8223C21.8432 26.8223 21.3184 26.7459 21.3184 26.4501C21.2518 26.1528 21.9862 26.299 21.918 25.6295C21.8416 25.181 21.3931 25.038 20.9544 25.038C19.3879 25.038 18.499 27.196 18.72 28.5236C18.7964 29.1232 19.0905 29.718 19.6934 29.718C20.1338 29.718 20.8032 29.0485 21.021 28.0849C21.1721 27.4154 21.7669 26.9669 22.2901 26.9669C22.5111 26.9669 22.6541 27.0432 22.7305 27.339V27.6364C22.6639 27.9337 22.4331 28.8307 22.5111 29.0485C22.5111 29.2029 22.5875 29.4206 22.8816 29.4206C23.0766 29.4206 23.8225 29.0306 24.5668 28.4212C24.8121 27.1424 25.1079 25.6116 25.1079 25.4849C25.1843 24.96 25.4053 24.4432 26.4453 24.4432C26.6728 24.4432 26.8174 24.5196 26.8937 24.8154V25.1128L26.5964 26.4501C27.5633 25.1891 28.9754 24.3003 29.8643 24.3003C30.2364 24.3003 30.5338 24.5196 30.5338 24.8917C30.5338 25.1127 30.5337 25.4849 30.3794 25.8586C30.0852 26.6711 29.7115 27.9402 29.4905 29.0485C29.4905 29.3459 29.5669 29.6416 29.939 29.6416C30.3111 29.6416 31.421 29.2013 32.3099 28.0085L32.3277 28.0004C32.3277 27.8558 32.3099 27.7127 32.3099 27.5697C32.3099 26.6727 32.3863 25.9366 32.539 25.4117C32.6901 24.8186 33.4279 24.3019 33.8764 24.3019C34.0958 24.3019 34.3249 24.4449 34.3249 24.6659C34.3249 24.7422 34.3249 24.8934 34.2485 24.9633C33.9511 25.9366 33.722 26.8239 33.722 27.7128C33.722 28.2376 33.8 28.9738 33.9511 29.4223C33.9511 29.4986 34.0178 29.5734 34.0941 29.5734C34.2485 29.5734 35.2885 28.6097 36.0246 27.339C35.3551 26.8986 34.983 26.1544 34.983 25.2655C34.983 23.7006 35.958 22.8865 36.8469 22.8865C37.5927 22.8865 38.1842 23.4049 38.1842 24.4449C38.1842 25.1144 37.9633 25.8602 37.5928 26.5265H37.8121C38.2866 26.5444 38.753 26.3494 39.0731 26.0114C39.1439 25.8984 39.2477 25.8099 39.3705 25.7579C40.0985 24.8349 41.1645 24.1508 42.4255 24.1508C43.4655 24.1508 44.4226 24.5992 44.499 25.4117C44.6501 26.5281 43.6784 26.7491 43.381 26.7491C43.0869 26.7491 42.562 26.6728 42.562 26.377C42.562 26.0813 43.2299 26.2259 43.1616 25.5645C43.0853 25.116 42.6367 24.9649 42.1882 24.9649C40.7062 24.9649 39.7426 26.8937 39.9604 28.4602C40.0367 29.0517 40.3325 29.7213 40.9273 29.7213C41.3758 29.7213 42.0436 29.0517 42.3394 28.0881C42.4824 27.4966 43.0852 26.9701 43.6004 26.9701C43.8279 26.9701 43.9725 27.0465 44.0489 27.3423C44.0489 27.4966 44.0489 27.7908 43.7515 28.7576C43.3794 29.4255 43.3794 29.7976 43.4574 30.095C43.524 30.6865 43.8214 31.135 44.1252 31.356C44.1793 31.4251 44.2277 31.4985 44.2699 31.5754C44.2699 31.7297 44.1919 31.8809 43.9725 31.8809C43.8961 31.8809 43.8279 31.8809 43.7515 31.8045C42.6351 31.356 42.1866 30.6101 42.042 29.8659C41.5935 30.3907 41.0784 30.6865 40.4771 30.6865C39.5103 30.6865 38.5547 29.7976 38.4036 28.6796C38.3587 28.2055 38.4135 27.7273 38.5645 27.2756C38.1241 27.5551 37.6496 27.716 37.2109 27.716H36.8469C35.8735 29.1281 34.8319 30.095 34.0958 30.5354C33.8423 30.6707 33.5621 30.7484 33.2751 30.7629C33.1321 30.7629 32.9046 30.6865 32.8347 30.5354C32.6251 30.2055 32.4967 29.6888 32.4122 29.0973C31.3706 30.2299 29.9309 30.8393 29.2646 30.8393C28.5188 30.8393 28.08 30.3908 28.0036 29.6481V28.8356C28.223 27.2025 28.8243 26.2291 28.8243 25.9318C28.8199 25.8926 28.8022 25.8562 28.774 25.8286C28.7459 25.8011 28.7091 25.7841 28.6699 25.7806C28.1547 25.7806 26.4452 27.5665 26.1479 28.7592L25.9204 29.7229C25.7758 30.3908 25.1079 30.8393 24.6594 30.8393C24.4384 30.8393 24.2873 30.7629 24.219 30.4688V30.1714L24.3116 29.6644C23.3708 30.3322 22.4315 30.7629 21.983 30.7629C21.3151 30.7629 20.943 30.3907 20.8764 29.8659C20.4279 30.4687 19.9095 30.7629 19.2433 30.7629C18.4714 30.7629 17.7287 30.238 17.3729 29.4775C16.8382 30.0771 16.237 30.6784 15.5269 31.135C14.4869 31.8045 13.3023 32.3196 11.8869 32.3196C10.6259 32.3196 9.5095 31.6501 8.91637 31.0586C8.01938 30.238 7.50425 28.977 7.42788 27.7907C6.9875 24.1524 9.21375 19.4708 12.623 17.3891C13.4436 16.9406 14.2659 16.6465 15.0784 16.6465L15.0816 16.64ZM36.2489 23.7754C36.0295 23.7754 35.8784 24.1475 35.8784 24.5099C35.8784 25.1128 36.1725 25.779 36.5462 26.1527C36.6956 25.7462 36.7731 25.3167 36.7754 24.8836C36.7754 24.1491 36.478 23.777 36.2489 23.777V23.7754Z" fill="#263238"/>
</svg>
