<svg width="52" height="53" viewBox="0 0 52 53" fill="none" xmlns="http://www.w3.org/2000/svg">
<path d="M18.4844 52.4062C23.3187 52.4062 27.2188 48.5062 27.2188 43.6719V34.9375H18.4844C13.65 34.9375 9.75 38.8375 9.75 43.6719C9.75 48.5062 13.65 52.4062 18.4844 52.4062Z" fill="#0ACF83"/>
<path d="M9.75 26.2031C9.75 21.3688 13.65 17.4688 18.4844 17.4688H27.2188V34.9375H18.4844C13.65 34.9375 9.75 31.0375 9.75 26.2031Z" fill="#A259FF"/>
<path d="M9.75 8.73438C9.75 3.9 13.65 0 18.4844 0H27.2188V17.4688H18.4844C13.65 17.4688 9.75 13.5687 9.75 8.73438Z" fill="#F24E1E"/>
<path d="M27.2188 0H35.9531C40.7875 0 44.6875 3.9 44.6875 8.73438C44.6875 13.5687 40.7875 17.4688 35.9531 17.4688H27.2188V0Z" fill="#FF7262"/>
<path d="M44.6875 26.2031C44.6875 31.0375 40.7875 34.9375 35.9531 34.9375C31.1188 34.9375 27.2188 31.0375 27.2188 26.2031C27.2188 21.3688 31.1188 17.4688 35.9531 17.4688C40.7875 17.4688 44.6875 21.3688 44.6875 26.2031Z" fill="#1ABCFE"/>
</svg>
