<svg width="52" height="52" viewBox="0 0 52 52" fill="none" xmlns="http://www.w3.org/2000/svg">
<path d="M18.4141 4.33203C16.6902 4.33203 15.0369 5.01685 13.8179 6.23584C12.5989 7.45482 11.9141 9.10812 11.9141 10.832C11.9141 12.5559 12.5989 14.2092 13.8179 15.4282C15.0369 16.6472 16.6902 17.332 18.4141 17.332H33.5807C35.3046 17.332 36.9579 16.6472 38.1769 15.4282C39.3959 14.2092 40.0807 12.5559 40.0807 10.832C40.0807 9.10812 39.3959 7.45482 38.1769 6.23584C36.9579 5.01685 35.3046 4.33203 33.5807 4.33203H18.4141ZM33.5807 19.4987C31.8568 19.4987 30.2035 20.1835 28.9845 21.4025C27.7655 22.6215 27.0807 24.2748 27.0807 25.9987C27.0807 27.7226 27.7655 29.3759 28.9845 30.5949C30.2035 31.8139 31.8568 32.4987 33.5807 32.4987C35.3046 32.4987 36.9579 31.8139 38.1769 30.5949C39.3959 29.3759 40.0807 27.7226 40.0807 25.9987C40.0807 24.2748 39.3959 22.6215 38.1769 21.4025C36.9579 20.1835 35.3046 19.4987 33.5807 19.4987ZM11.9141 25.9987C11.9141 24.2748 12.5989 22.6215 13.8179 21.4025C15.0369 20.1835 16.6902 19.4987 18.4141 19.4987H24.9141V32.4987H18.4141C16.6902 32.4987 15.0369 31.8139 13.8179 30.5949C12.5989 29.3759 11.9141 27.7226 11.9141 25.9987ZM18.4141 34.6654C17.1285 34.6654 15.8718 35.0466 14.8029 35.7608C13.7339 36.475 12.9008 37.4902 12.4088 38.6779C11.9169 39.8656 11.7882 41.1726 12.039 42.4335C12.2898 43.6943 12.9088 44.8525 13.8179 45.7616C14.7269 46.6706 15.8851 47.2897 17.146 47.5405C18.4069 47.7913 19.7138 47.6625 20.9015 47.1706C22.0892 46.6786 23.1044 45.8455 23.8186 44.7766C24.5328 43.7076 24.9141 42.4509 24.9141 41.1654V34.6654H18.4141Z" fill="#263238"/>
</svg>
