<svg width="97" height="97" viewBox="0 0 97 97" fill="none" xmlns="http://www.w3.org/2000/svg">
<g clip-path="url(#clip0_8_782)">
<path d="M51.7535 28.1814H45.2469V59.0874H51.7535V28.1814Z" fill="#FFC600"/>
<path d="M64.2784 10.1257C59.7238 5.73374 53.7053 3.61912 47.3614 3.94445C35.6497 4.43244 26.2152 14.1922 25.7272 25.904C25.4019 32.4105 28.0045 38.7544 32.7217 43.309C37.1136 47.5382 39.8789 53.2314 40.2042 59.4126H41.8309V28.1813H36.951V31.4345H33.6977V26.5546C33.6977 25.7413 34.511 24.928 35.3243 24.928H43.4575H53.2173H61.3505C62.1638 24.928 62.9771 25.7413 62.9771 26.5546V31.4345H59.7238V28.1813H54.8439V59.0873H56.4706C56.9586 53.0688 59.5612 47.2129 63.9531 42.9836C68.833 38.7544 71.2729 32.8985 71.2729 26.5546C71.2729 20.2108 68.833 14.3549 64.2784 10.1257Z" fill="#FFC600"/>
<path d="M51.7532 28.1814H45.2467V59.0874H51.7532V28.1814Z" fill="#FFC600"/>
<path d="M64.2784 10.1257C59.7238 5.73374 53.7053 3.61912 47.3614 3.94445C35.6497 4.43244 26.2152 14.1922 25.7272 25.904C25.4019 32.4105 28.0045 38.7544 32.7217 43.309C37.1136 47.5382 39.8789 53.2314 40.2042 59.4126H41.8309H54.8439H56.4706C56.9586 53.3941 59.5612 47.5382 63.9531 43.309C68.833 38.7544 71.2729 32.8985 71.2729 26.5546C71.2729 20.2108 68.833 14.3549 64.2784 10.1257Z" fill="#FF9900"/>
<path d="M68.0197 26.5548C68.0197 21.1869 65.9051 16.1443 62.0012 12.403C58.2599 8.98712 53.5427 7.03516 48.5001 7.03516C48.1748 7.03516 47.8495 7.03516 47.5241 7.03516C37.439 7.52315 29.3059 15.819 28.9805 25.7414C28.8179 31.272 30.9325 36.8025 34.9991 40.7065C39.2283 44.773 42.1563 49.9783 43.1322 55.8341H53.7053C54.6813 50.1409 57.6093 44.773 61.8385 40.7065C65.9051 36.9652 68.0197 31.9226 68.0197 26.5548Z" fill="#FFE1D7"/>
<path d="M66.3932 68.8472L69.6464 68.6845C69.6464 66.8952 70.7851 65.4312 72.5744 64.7806C74.0383 64.2926 75.3396 63.3166 76.641 62.3406C81.0329 62.5033 86.0754 64.6179 86.0754 70.4738C86.0754 75.679 82.0088 79.9083 76.8036 80.2336C75.0143 76.4923 71.1104 73.7271 66.5558 73.7271C60.212 73.7271 55.1694 78.7696 55.1694 85.1135H58.4227C58.4227 80.5589 62.0013 76.9803 66.5558 76.9803C71.1104 76.9803 74.689 80.5589 74.689 85.1135C74.689 89.6681 71.1104 93.2467 66.5558 93.2467H28.9806C24.426 93.2467 20.8474 89.6681 20.8474 85.1135V83.4869C20.8474 79.9083 23.7754 76.9803 27.354 76.9803V73.7271C23.2874 73.7271 19.7088 76.3297 18.2448 79.9083C14.1782 78.7696 11.0876 75.0284 11.0876 70.4738C11.0876 64.6179 15.9675 62.5033 20.3595 62.3406C22.6367 64.2926 25.7273 65.5939 28.9806 65.5939H32.2339V62.3406H28.9806C23.6127 62.3406 19.2208 57.9487 19.2208 52.5808C19.2208 47.3756 23.2874 43.1464 28.33 42.821C28.9806 43.6344 29.7939 44.6103 30.6072 45.4237C34.8365 49.3276 37.1138 55.0208 37.1138 60.714C37.1138 61.5273 37.9271 62.3406 38.7404 62.3406H40.367V65.5939C40.367 66.4072 41.1804 67.2205 41.9937 67.2205H43.6203V70.4738C43.6203 71.2871 44.4336 72.1004 45.2469 72.1004H51.7535C52.5668 72.1004 53.3801 71.2871 53.3801 70.4738V67.2205H55.0067C55.8201 67.2205 56.6334 66.4072 56.6334 65.5939V62.3406H58.26C59.0733 62.3406 59.8866 61.5273 59.8866 60.714C59.8866 55.0208 62.3266 49.3276 66.3932 45.4237C67.2065 44.6103 68.0198 43.797 68.6705 42.9837C73.713 43.309 77.6169 47.5383 77.6169 52.7435C77.6169 56.8101 75.0143 60.5513 71.2731 61.8526C68.3451 62.8286 66.3932 65.5939 66.3932 68.8472Z" fill="#FAFAFA"/>
<path d="M28.9806 91.62C25.402 91.62 22.474 88.6921 22.474 85.1135V83.4869C22.474 80.7216 24.5887 78.607 27.3539 78.607H28.9806V72.1004H27.3539C23.1247 72.1004 19.5461 74.3777 17.4315 77.7937C14.6662 76.4924 12.7142 73.7271 12.7142 70.4738C12.7142 65.2686 17.5941 64.1299 19.8714 63.9673C22.474 66.0819 25.7273 67.2205 28.9806 67.2205H33.8605V60.714H28.9806C24.426 60.714 20.8474 57.1354 20.8474 52.5809C20.8474 48.6769 23.7753 45.261 27.5166 44.6104C28.1672 45.261 28.8179 46.0743 29.3059 46.5623C33.2098 50.1409 35.3244 55.3461 35.3244 60.714C35.3244 62.5033 36.7884 63.9673 38.5777 63.9673V65.5939C38.5777 67.3832 40.0417 68.8472 41.831 68.8472V70.4738C41.831 72.2631 43.2949 73.7271 45.0842 73.7271H51.5908C53.3801 73.7271 54.844 72.2631 54.844 70.4738V68.8472C56.6333 68.8472 58.0973 67.3832 58.0973 65.5939V63.9673C59.8866 63.9673 61.3506 62.5033 61.3506 60.714C61.3506 55.3461 63.6278 50.3036 67.3691 46.5623C68.0197 45.9117 68.6704 45.261 69.1584 44.6104C73.0623 45.261 75.8276 48.6769 75.8276 52.5809C75.8276 55.9968 73.713 59.0874 70.4597 60.226C67.2064 61.5273 64.7665 64.9433 64.7665 68.8472V70.4738L71.273 70.1485V68.5219C71.273 67.5459 71.9237 66.5699 73.0623 66.0819C74.5263 65.5939 75.8276 64.7806 77.1289 63.8046C79.4062 63.9673 84.2861 64.9433 84.2861 70.3111C84.2861 74.3777 81.3581 77.631 77.6169 78.2816C75.1769 74.5404 70.9477 72.1004 66.3931 72.1004C59.2359 72.1004 53.3801 77.9563 53.3801 85.1135V86.7401H59.8866V85.1135C59.8866 81.5349 62.8145 78.607 66.3931 78.607C69.9717 78.607 72.8996 81.5349 72.8996 85.1135C72.8996 88.6921 69.9717 91.62 66.3931 91.62H28.9806Z" fill="#FFE1D7"/>
<path d="M50.1268 68.8473V67.2207H46.8735V68.8473H50.1268ZM51.7534 59.0875V28.1815H45.2469V59.0875H51.7534ZM53.3801 63.9674V62.3408H43.6203V63.9674H45.2469H51.7534H53.3801ZM71.273 26.5549C71.273 20.211 68.8331 14.3551 64.2785 10.1259C59.7239 5.73396 53.7054 3.61934 47.3615 3.94467C35.6498 4.43266 26.2153 14.1925 25.7273 25.7415C25.5646 32.2481 28.0046 38.5919 32.8845 43.1465C37.2764 47.3758 40.0417 53.069 40.367 59.2502H41.9936V28.1815H37.1137V31.4348H33.8605V26.5549C33.8605 25.7415 34.6738 24.9282 35.4871 24.9282H43.6203H53.3801H61.5132C62.3265 24.9282 63.1399 25.7415 63.1399 26.5549V31.4348H59.8866V28.1815H55.0067V59.0875H56.6333C57.1213 53.069 59.7239 47.2131 64.1158 42.9839C68.8331 38.7546 71.273 32.8987 71.273 26.5549ZM19.2208 52.581C19.2208 57.9489 23.6127 62.3408 28.9806 62.3408H32.2338V65.5941H28.9806C25.7273 65.5941 22.6367 64.2927 20.3594 62.3408C15.9675 62.5035 11.0876 64.6181 11.0876 70.474C11.0876 75.0285 14.1782 78.7698 18.2448 79.9084C19.7088 76.3298 23.1247 73.7272 27.3539 73.7272V76.9805C23.7754 76.9805 20.8474 79.9084 20.8474 83.487V85.1136C20.8474 89.6682 24.426 93.2468 28.9806 93.2468H66.3931C70.9477 93.2468 74.5263 89.6682 74.5263 85.1136C74.5263 80.5591 70.9477 76.9805 66.3931 76.9805C61.8386 76.9805 58.26 80.5591 58.26 85.1136H55.0067C55.0067 78.7698 60.0493 73.7272 66.3931 73.7272C70.9477 73.7272 74.8516 76.3298 76.6409 80.2337C81.8461 79.9084 85.9127 75.6792 85.9127 70.474C85.9127 64.6181 81.0328 62.5035 76.4783 62.3408C75.3396 63.3168 74.0383 64.2927 72.4117 64.7807C70.6224 65.4314 69.4837 66.8954 69.4837 68.6847L66.3931 68.8473C66.3931 65.5941 68.3451 62.8288 71.4357 61.6901C75.1769 60.2262 77.7796 56.6476 77.7796 52.581C77.7796 47.3758 73.713 43.1465 68.8331 42.8212C68.1824 43.6345 67.3691 44.6105 66.5558 45.2611C62.3265 49.3277 60.0493 54.8583 60.0493 60.5515C60.0493 61.3648 59.2359 62.1781 58.4226 62.1781H56.796V65.4314C56.796 66.2447 55.9827 67.058 55.1694 67.058H53.5427V70.3113C53.5427 71.1246 52.7294 71.9379 51.9161 71.9379H45.4096C44.5963 71.9379 43.7829 71.1246 43.7829 70.3113V67.058H42.1563C41.343 67.058 40.5297 66.2447 40.5297 65.4314V62.1781H38.903C38.0897 62.1781 37.2764 61.3648 37.2764 60.5515C37.2764 54.8583 34.8365 49.1651 30.7699 45.2611C29.9566 44.4478 29.1432 43.6345 28.4926 42.6585C23.2874 43.3092 19.2208 47.3758 19.2208 52.581ZM15.9675 52.581C15.9675 46.3998 20.3594 41.1946 26.2153 39.8933C23.6127 35.664 22.3114 30.6214 22.474 25.5789C22.962 12.2405 33.8605 1.17939 47.1989 0.528738C54.3561 0.203412 61.1879 2.64336 66.3931 7.68592C71.5984 12.7285 74.5263 19.3977 74.5263 26.5549C74.5263 31.2721 73.225 35.8267 70.785 39.8933C76.6409 41.1946 81.0328 46.3998 81.0328 52.581C81.0328 55.0209 80.3822 57.2982 79.0809 59.4128C85.2621 60.3888 89.166 64.6181 89.166 70.474C89.166 77.1431 84.1234 82.6737 77.6169 83.3244C77.6169 83.975 77.7796 84.463 77.7796 85.1136C77.7796 91.4575 72.737 96.5001 66.3931 96.5001H28.9806C22.6367 96.5001 17.5941 91.4575 17.5941 85.1136V83.487C17.5941 83.3244 17.5941 83.1617 17.5941 82.999C12.0636 81.5351 7.83435 76.4925 7.83435 70.474C7.83435 64.6181 11.7383 60.3888 17.9195 59.4128C16.6182 57.2982 15.9675 55.0209 15.9675 52.581Z" fill="#F8875E"/>
</g>
<defs>
<clipPath id="clip0_8_782">
<rect width="96" height="96" fill="white" transform="translate(0.5 0.5)"/>
</clipPath>
</defs>
</svg>
