<svg width="153" height="153" viewBox="0 0 153 153" fill="none" xmlns="http://www.w3.org/2000/svg">
<g clip-path="url(#clip0_8_782)">
<path d="M81.6852 44.1172H71.3154V93.3737H81.6852V44.1172Z" fill="#FFC600"/>
<path d="M101.647 15.341C94.3879 8.34136 84.7959 4.97118 74.6853 5.48967C56.0197 6.2674 40.9835 21.8221 40.2058 40.4877C39.6873 50.8575 43.8352 60.968 51.3533 68.2269C58.3529 74.9672 62.7601 84.0408 63.2786 93.8921H65.871V44.1171H58.0937V49.302H52.9088V41.5247C52.9088 40.2284 54.205 38.9322 55.5012 38.9322H68.4634H84.0181H96.9804C98.2766 38.9322 99.5728 40.2284 99.5728 41.5247V49.302H94.3879V44.1171H86.6106V93.3736H89.203C89.9808 83.7815 94.1287 74.4487 101.128 67.7084C108.906 60.968 112.794 51.6352 112.794 41.5247C112.794 31.4141 108.906 22.0813 101.647 15.341Z" fill="#FFC600"/>
<path d="M81.685 44.1172H71.3152V93.3737H81.685V44.1172Z" fill="#FFC600"/>
<path d="M101.647 15.341C94.3879 8.34136 84.7959 4.97118 74.6853 5.48967C56.0197 6.2674 40.9835 21.8221 40.2058 40.4877C39.6873 50.8575 43.8352 60.968 51.3533 68.2269C58.3529 74.9672 62.7601 84.0408 63.2786 93.8921H65.871H86.6106H89.203C89.9808 84.3 94.1287 74.9672 101.128 68.2269C108.906 60.968 112.794 51.6352 112.794 41.5247C112.794 31.4141 108.906 22.0813 101.647 15.341Z" fill="#FF9900"/>
<path d="M107.61 41.5249C107.61 32.9698 104.239 24.9332 98.0175 18.9706C92.0549 13.5265 84.5368 10.4155 76.5002 10.4155C75.9817 10.4155 75.4632 10.4155 74.9447 10.4155C58.8716 11.1933 45.9094 24.4147 45.3909 40.2287C45.1316 49.043 48.5018 57.8573 54.9829 64.0792C61.7233 70.5603 66.3897 78.8561 67.9451 88.1889H84.796C86.3515 79.1153 91.0179 70.5603 97.7583 64.0792C104.239 58.1165 107.61 50.08 107.61 41.5249Z" fill="#FFE1D7"/>
<path d="M105.017 108.928L110.202 108.669C110.202 105.817 112.017 103.484 114.868 102.447C117.202 101.67 119.276 100.114 121.35 98.5586C128.349 98.8178 136.386 102.188 136.386 111.521C136.386 119.817 129.905 126.557 121.609 127.075C118.757 121.113 112.535 116.706 105.276 116.706C95.1659 116.706 87.1293 124.742 87.1293 134.853H92.3142C92.3142 127.594 98.0176 121.891 105.276 121.891C112.535 121.891 118.239 127.594 118.239 134.853C118.239 142.112 112.535 147.815 105.276 147.815H45.3909C38.1321 147.815 32.4287 142.112 32.4287 134.853V132.26C32.4287 126.557 37.0951 121.891 42.7985 121.891V116.706C36.3174 116.706 30.614 120.854 28.2808 126.557C21.7997 124.742 16.874 118.78 16.874 111.521C16.874 102.188 24.6514 98.8178 31.651 98.5586C35.2804 101.67 40.206 103.743 45.3909 103.743H50.5758V98.5586H45.3909C36.8359 98.5586 29.8363 91.559 29.8363 83.0039C29.8363 74.7081 36.3174 67.9677 44.354 67.4492C45.3909 68.7454 46.6872 70.3009 47.9834 71.5971C54.7237 77.819 58.3532 86.8926 58.3532 95.9661C58.3532 97.2623 59.6494 98.5586 60.9456 98.5586H63.538V103.743C63.538 105.04 64.8343 106.336 66.1305 106.336H68.7229V111.521C68.7229 112.817 70.0192 114.113 71.3154 114.113H81.6852C82.9814 114.113 84.2776 112.817 84.2776 111.521V106.336H86.8701C88.1663 106.336 89.4625 105.04 89.4625 103.743V98.5586H92.055C93.3512 98.5586 94.6474 97.2623 94.6474 95.9661C94.6474 86.8926 98.5361 77.819 105.017 71.5971C106.313 70.3009 107.61 69.0047 108.647 67.7085C116.683 68.2269 122.905 74.9673 122.905 83.2631C122.905 89.7443 118.757 95.7069 112.795 97.7808C108.128 99.3363 105.017 103.743 105.017 108.928Z" fill="#FAFAFA"/>
<path d="M45.3909 145.223C39.6875 145.223 35.0211 140.556 35.0211 134.853V132.26C35.0211 127.853 38.3913 124.483 42.7984 124.483H45.3909V114.113H42.7984C36.0581 114.113 30.3547 117.743 26.9845 123.187C22.5774 121.113 19.4664 116.706 19.4664 111.521C19.4664 103.225 27.2438 101.41 30.8732 101.151C35.0211 104.521 40.206 106.336 45.3909 106.336H53.1682V95.9662H45.3909C38.132 95.9662 32.4287 90.2629 32.4287 83.004C32.4287 76.7821 37.0951 71.338 43.0577 70.301C44.0947 71.338 45.1316 72.6342 45.9094 73.412C52.1313 79.1153 55.5014 87.4112 55.5014 95.9662C55.5014 98.8179 57.8346 101.151 60.6863 101.151V103.744C60.6863 106.595 63.0195 108.928 65.8712 108.928V111.521C65.8712 114.373 68.2044 116.706 71.0561 116.706H81.4259C84.2776 116.706 86.6108 114.373 86.6108 111.521V108.928C89.4625 108.928 91.7957 106.595 91.7957 103.744V101.151C94.6474 101.151 96.9806 98.8179 96.9806 95.9662C96.9806 87.4112 100.61 79.3746 106.573 73.412C107.61 72.375 108.647 71.338 109.424 70.301C115.646 71.338 120.053 76.7821 120.053 83.004C120.053 88.4481 116.683 93.3738 111.498 95.1885C106.313 97.2625 102.425 102.707 102.425 108.928V111.521L112.794 111.002V108.41C112.794 106.855 113.831 105.299 115.646 104.521C117.979 103.744 120.053 102.447 122.127 100.892C125.757 101.151 133.534 102.707 133.534 111.262C133.534 117.743 128.868 122.928 122.905 123.965C119.016 118.002 112.276 114.113 105.017 114.113C93.6104 114.113 84.2776 123.446 84.2776 134.853V137.445H94.6474V134.853C94.6474 129.15 99.3138 124.483 105.017 124.483C110.721 124.483 115.387 129.15 115.387 134.853C115.387 140.556 110.721 145.223 105.017 145.223H45.3909Z" fill="#FFE1D7"/>
<path d="M79.0927 108.928V106.336H73.9079V108.928H79.0927ZM81.6852 93.3736V44.1171H71.3154V93.3736H81.6852ZM84.2776 101.151V98.5585H68.723V101.151H71.3154H81.6852H84.2776ZM112.795 41.5247C112.795 31.4142 108.906 22.0813 101.647 15.341C94.3882 8.34138 84.7961 4.9712 74.6856 5.48969C56.02 6.26743 40.9838 21.8221 40.2061 40.2285C39.9468 50.5983 43.8355 60.7088 51.6128 67.9676C58.6124 74.708 63.0196 83.7816 63.5381 93.6329H66.1305V44.1171H58.3532V49.302H53.1683V41.5247C53.1683 40.2285 54.4645 38.9322 55.7607 38.9322H68.723H84.2776H97.2399C98.5361 38.9322 99.8323 40.2285 99.8323 41.5247V49.302H94.6474V44.1171H86.8701V93.3736H89.4625C90.2403 83.7816 94.3882 74.4488 101.388 67.7084C108.906 60.968 112.795 51.6352 112.795 41.5247ZM29.8363 83.0038C29.8363 91.5589 36.8359 98.5585 45.3909 98.5585H50.5758V103.743H45.3909C40.2061 103.743 35.2804 101.669 31.651 98.5585C24.6514 98.8177 16.874 102.188 16.874 111.521C16.874 118.78 21.7997 124.742 28.2808 126.557C30.614 120.854 36.0581 116.706 42.7985 116.706V121.891C37.0951 121.891 32.4287 126.557 32.4287 132.26V134.853C32.4287 142.112 38.1321 147.815 45.3909 147.815H105.017C112.276 147.815 117.979 142.112 117.979 134.853C117.979 127.594 112.276 121.891 105.017 121.891C97.7584 121.891 92.055 127.594 92.055 134.853H86.8701C86.8701 124.742 94.9067 116.706 105.017 116.706C112.276 116.706 118.498 120.854 121.35 127.075C129.645 126.557 136.127 119.817 136.127 111.521C136.127 102.188 128.349 98.8177 121.09 98.5585C119.276 100.114 117.202 101.669 114.609 102.447C111.758 103.484 109.943 105.817 109.943 108.669L105.017 108.928C105.017 103.743 108.128 99.3362 113.054 97.5215C119.016 95.1883 123.164 89.4849 123.164 83.0038C123.164 74.708 116.683 67.9676 108.906 67.4492C107.869 68.7454 106.573 70.3008 105.276 71.3378C98.5361 77.8189 94.9067 86.6332 94.9067 95.7068C94.9067 97.003 93.6104 98.2993 92.3142 98.2993H89.7218V103.484C89.7218 104.78 88.4256 106.077 87.1293 106.077H84.5369V111.261C84.5369 112.558 83.2407 113.854 81.9444 113.854H71.5747C70.2784 113.854 68.9822 112.558 68.9822 111.261V106.077H66.3898C65.0935 106.077 63.7973 104.78 63.7973 103.484V98.2993H61.2049C59.9086 98.2993 58.6124 97.003 58.6124 95.7068C58.6124 86.6332 54.7238 77.5597 48.2426 71.3378C46.9464 70.0416 45.6502 68.7454 44.6132 67.1899C36.3174 68.2269 29.8363 74.708 29.8363 83.0038ZM24.6514 83.0038C24.6514 73.1525 31.651 64.8567 40.9838 62.7827C36.8359 56.0424 34.7619 48.0058 35.0212 39.9692C35.7989 18.7112 53.1683 1.08254 74.4263 0.0455578C85.8331 -0.472931 96.7214 3.41574 105.017 11.4523C113.313 19.4889 117.979 30.1179 117.979 41.5247C117.979 49.0428 115.905 56.3016 112.017 62.7827C121.35 64.8567 128.349 73.1525 128.349 83.0038C128.349 86.8925 127.312 90.5219 125.238 93.8921C135.09 95.4476 141.311 102.188 141.311 111.521C141.311 122.15 133.275 130.964 122.905 132.001C122.905 133.038 123.164 133.816 123.164 134.853C123.164 144.963 115.128 153 105.017 153H45.3909C35.2804 153 27.2438 144.963 27.2438 134.853V132.26C27.2438 132.001 27.2438 131.742 27.2438 131.483C18.4295 129.149 11.6891 121.113 11.6891 111.521C11.6891 102.188 17.911 95.4476 27.7623 93.8921C25.6884 90.5219 24.6514 86.8925 24.6514 83.0038Z" fill="#F8875E"/>
</g>
<defs>
<clipPath id="clip0_8_782">
<rect width="153" height="153" fill="white"/>
</clipPath>
</defs>
</svg>
