<svg width="52" height="52" viewBox="0 0 52 52" fill="none" xmlns="http://www.w3.org/2000/svg">
<path d="M0 13C0 5.82034 5.82034 0 13 0H39C46.1797 0 52 5.82034 52 13V39C52 46.1797 46.1797 52 39 52H13C5.82034 52 0 46.1797 0 39V13Z" fill="#FFDD33"/>
<path d="M34.5709 9.91406H29.8504L33.7842 16.8256L25.13 9.91406H20.4096L24.7368 18.3616L15.6892 9.91406H10.9688L15.6892 20.6669L10.9688 42.1703H15.6892L24.7368 19.1307L20.4096 42.1703H25.13L33.7842 17.5946L29.8504 42.1703H34.5709L43.225 15.2894L34.5709 9.91406Z" fill="#263238"/>
</svg>
