<svg width="52" height="52" viewBox="0 0 52 52" fill="none" xmlns="http://www.w3.org/2000/svg">
<path d="M11.2958 10.8081C12.7518 11.9902 13.296 11.9001 16.0312 11.7163L41.799 10.1702C42.3467 10.1702 41.8926 9.62593 41.7088 9.53579L37.4275 6.44006C36.6094 5.80219 35.5174 5.07419 33.4235 5.25793L8.47042 7.07793C7.56215 7.16806 7.37842 7.62219 7.74242 7.98619L11.2958 10.8081ZM12.8419 16.8123V43.9251C12.8419 45.3811 13.5699 45.9289 15.2096 45.8387L43.5323 44.199C45.1686 44.1089 45.3523 43.107 45.3523 41.9249V14.9923C45.3523 13.8137 44.8982 13.1723 43.8963 13.2625L14.2979 14.9923C13.2059 15.0825 12.8419 15.6302 12.8419 16.8123ZM40.8006 18.2683C40.9808 19.0865 40.8006 19.9046 39.979 19.9982L38.6131 20.2686V40.2886C37.431 40.923 36.3355 41.287 35.4238 41.287C33.9678 41.287 33.6038 40.8329 32.5118 39.467L23.5851 25.4547V39.0129L26.4104 39.6507C26.4104 39.6507 26.4104 41.287 24.1328 41.287L17.8512 41.651C17.6675 41.287 17.8512 40.3787 18.4891 40.195L20.1254 39.7443V21.8147L17.8547 21.6345C17.671 20.8163 18.1251 19.6342 19.4008 19.5406L26.14 19.0899L35.4307 33.2825V20.7262L33.063 20.4523C32.8792 19.4505 33.6072 18.7225 34.519 18.6323L40.8006 18.2683ZM6.37655 4.62006L32.3315 2.70993C35.5174 2.43259 36.339 2.61979 38.3392 4.07579L46.6246 9.89979C47.9939 10.8982 48.448 11.1721 48.448 12.2641V44.199C48.448 46.2027 47.72 47.3883 45.1686 47.5651L15.0294 49.3851C13.1158 49.4787 12.204 49.2049 11.2022 47.9291L5.10082 40.0147C4.00882 38.5587 3.55469 37.4667 3.55469 36.191V7.80246C3.55469 6.16619 4.28269 4.80033 6.37655 4.62006Z" fill="#263238"/>
</svg>
