<svg width="52" height="52" viewBox="0 0 52 52" fill="none" xmlns="http://www.w3.org/2000/svg">
<path d="M24.1217 0.0633266C23.925 0.0840453 23.3112 0.156764 22.7697 0.220545C20.5865 0.469577 18.1108 1.12526 15.9382 2.04055C8.07519 5.32589 2.15734 12.534 0.524625 20.8016C0.140313 22.7678 0.046875 23.7339 0.046875 26.0016C0.046875 28.9245 0.337344 30.9416 1.10719 33.4904C3.62391 41.8307 10.1759 48.3721 18.5377 50.8986C21.0545 51.6587 23.0825 51.9492 25.9945 51.9492C28.9174 51.9492 30.9345 51.6587 33.4833 50.8889C41.8236 48.3721 48.365 41.8201 50.8915 33.4583C51.6516 30.9416 51.9421 28.9136 51.9421 26.0016C51.9421 24.7637 51.8803 23.35 51.8072 22.8292C50.9646 16.8183 48.4889 11.7637 44.3614 7.63461C40.2417 3.53717 35.2082 1.05214 29.3217 0.209577C28.5108 0.0950141 24.7562 -0.00979844 24.1217 0.0633266ZM15.6461 16.4433C16.1986 16.6099 16.4569 16.7659 16.8315 17.14C17.5599 17.8794 17.7265 18.2845 17.7265 19.3968C17.7265 20.23 17.6948 20.3856 17.4457 20.8219C16.9664 21.6328 15.8541 22.3819 15.0846 22.4022C14.5431 22.4136 14.5654 22.1739 15.1577 21.5503C15.9479 20.7285 16.0621 20.4169 16.0621 19.1888C16.0523 18.0037 15.9065 17.5987 15.3556 17.2656C14.8973 16.9849 14.3989 17.0056 13.6705 17.348C11.7773 18.254 9.72862 21.2696 8.92872 24.3591C7.86719 28.4773 9.74934 31.7732 12.8486 31.2113C13.7529 31.0448 15.4588 30.1721 16.1986 29.4848C16.8112 28.9245 16.8112 28.9136 16.8729 28.2173C17.0094 26.76 18.0377 25.3049 19.412 24.6289C20.0449 24.316 20.2022 24.286 21.0545 24.286C21.8653 24.286 22.0526 24.3274 22.4479 24.5448C23.7061 25.2638 23.4461 26.9376 22.0843 26.9376C21.2942 26.9376 20.8879 26.5313 21.4607 26.3144C22.0226 26.1064 21.8129 25.3256 21.1593 25.1493C20.3894 24.951 19.5152 25.4714 18.9643 26.4696C18.2981 27.6761 18.2676 29.1118 18.9009 29.7659C19.5152 30.4212 20.2846 29.9024 20.8782 28.4135C21.1893 27.655 21.6366 27.2488 22.1574 27.2488C22.6145 27.2488 22.6986 27.5299 22.4999 28.3834C22.2082 29.7037 22.4065 30.0466 23.2283 29.642C23.4981 29.5165 23.9457 29.2264 24.2155 29.0184L24.7249 28.6121L25.0694 26.8125C25.444 24.7954 25.5882 24.524 26.3581 24.3798C27.0974 24.2433 27.264 24.6081 26.9926 25.7619L26.8464 26.4078L27.3879 25.8553C28.6668 24.5448 30.2377 23.9005 30.7789 24.4416C31.0693 24.732 31.0377 25.0969 30.6221 26.3855C30.425 26.9997 30.1537 27.9678 30.0302 28.5183C29.8429 29.3499 29.8315 29.5481 29.9367 29.6834C30.2698 30.0783 31.2883 29.672 32.193 28.788L32.7232 28.2693L32.7866 27.1139C32.8483 25.7826 32.9722 25.3049 33.3261 24.8779C33.6592 24.483 34.2625 24.1925 34.5846 24.275C34.9068 24.3591 34.9068 24.6703 34.6163 25.586C34.2101 26.8441 34.2527 29.7452 34.6687 29.7452C34.8353 29.7452 35.6872 28.8514 36.2287 28.1027L36.6333 27.5502L36.3112 27.2187C35.7493 26.6256 35.6145 26.2413 35.6145 25.2732C35.6145 24.5671 35.6669 24.3067 35.8428 23.9622C36.1349 23.4227 36.5919 23.0278 37.133 22.8706C37.7042 22.6943 38.4119 22.9848 38.7024 23.5052C38.9945 24.0353 38.9217 25.2208 38.5468 26.0333L38.277 26.6252H38.6406C39.1403 26.6252 39.3373 26.5013 40.2323 25.6587C40.7003 25.2114 41.2414 24.8259 41.6461 24.6386C43.2377 23.8911 45.1106 24.275 45.4213 25.419C45.6813 26.3347 45.1106 26.979 44.1108 26.9059C43.3933 26.8539 43.2585 26.6662 43.6745 26.3144C44.4232 25.6888 43.6745 24.8893 42.6032 25.1797C42.0206 25.3365 41.3653 25.9906 41.0229 26.7507C40.3355 28.2693 40.7003 30.0576 41.6875 30.0576C42.0828 30.0576 42.7807 29.2772 43.0505 28.5183C43.3726 27.644 44.0486 27.0936 44.5581 27.2914C44.8392 27.395 44.8599 27.6757 44.6836 28.5597C44.4853 29.5278 44.4549 30.4325 44.6105 30.8481C44.6726 31.0033 44.8599 31.2954 45.0374 31.4925C45.3689 31.8666 45.3803 32.0019 45.0992 32.1794C44.9643 32.2729 44.7864 32.2318 44.3505 31.9925C43.7472 31.6797 43.2268 31.1179 43.0395 30.5877L42.9253 30.2765L42.5093 30.5877C42.2697 30.7543 41.8955 30.9416 41.6777 31.0033C40.8145 31.232 39.7529 30.6401 39.2549 29.642C39.0562 29.256 38.9945 28.1234 39.1403 27.6867C39.2232 27.447 39.2232 27.447 38.8897 27.6136C38.7137 27.7074 38.3392 27.8106 38.0487 27.8423C37.5693 27.8951 37.4962 27.9471 37.0189 28.55C36.3429 29.3909 35.1461 30.526 34.6573 30.7657C33.6182 31.2845 33.2753 31.1386 33.0039 30.0669L32.8166 29.3499L32.3689 29.7452C31.7977 30.2449 30.6537 30.8481 29.9981 30.994C29.3745 31.1289 28.7082 30.9306 28.4381 30.5146C28.0338 29.891 28.1687 28.5707 28.8126 26.7917C29.2904 25.4714 28.9479 25.4511 27.7418 26.7093C26.8468 27.655 26.4625 28.331 26.2134 29.3816C25.9534 30.4736 25.6406 30.8685 24.9346 31.035C24.5076 31.1289 24.3089 30.8685 24.3934 30.2973L24.4552 29.8386L24.0599 30.11C23.4981 30.4943 22.7904 30.8481 22.3017 30.983C21.8129 31.1179 21.1686 30.9733 21.013 30.7019C20.7323 30.2245 20.7323 30.2245 20.296 30.567C19.3486 31.3369 17.9966 31.1179 17.3109 30.099L17.0915 29.7769L16.4062 30.4114C14.4289 32.2209 11.9549 33.0317 10.1239 32.4699C7.79406 31.7638 6.50544 29.7659 6.52616 26.8856C6.53591 23.9943 7.81478 20.9474 9.96831 18.6907C11.1854 17.4212 12.3294 16.672 13.4946 16.3913C14.3355 16.1833 14.8466 16.1939 15.6461 16.4433Z" fill="#00C4CC"/>
<path d="M36.7249 23.835C36.4962 24.0633 36.5803 24.979 36.8712 25.5615C37.017 25.863 37.1726 26.1026 37.2246 26.1026C37.266 26.1026 37.3595 25.863 37.4326 25.5709C37.6926 24.4902 37.2246 23.3349 36.7249 23.835Z" fill="#00C4CC"/>
</svg>
