<svg width="96" height="96" viewBox="0 0 100 100" fill="none" xmlns="http://www.w3.org/2000/svg">
<mask id="path-1-outside-1_5446_17204" maskUnits="userSpaceOnUse" x="18" y="35.6016" width="32" height="29" fill="black">
<rect fill="white" x="18" y="35.6016" width="32" height="29"/>
<path d="M34.9728 45.6304C34.6912 45.912 34.5504 46.2448 34.5504 46.6288V47.9344H40.3104C42.6656 47.9344 44.6752 48.7792 46.3392 50.4688C48.0288 52.1328 48.8736 54.1424 48.8736 56.4976V62.104C48.8736 62.9488 48.3872 63.448 47.4144 63.6016H41.2704C40.8608 63.6016 40.5024 63.4608 40.1952 63.1792C39.9136 62.872 39.7728 62.5136 39.7728 62.104V55.2304C39.7728 54.7184 39.5936 54.2832 39.2352 53.9248C38.8768 53.5408 38.4416 53.3488 37.9296 53.3488H29.0976C28.4832 53.3488 28.112 52.9776 27.984 52.2352V46.7824C27.984 46.3984 28.1248 46.0528 28.4064 45.7456L37.0464 37.1824C37.328 36.8752 37.6736 36.7216 38.0832 36.7216H47.4144C48.2336 36.7216 48.72 37.2208 48.8736 38.2192V43.1728C48.8736 43.5824 48.7328 43.9408 48.4512 44.248C48.1696 44.5296 47.824 44.6704 47.4144 44.6704H43.728C43.0368 44.6704 42.5504 44.2992 42.2688 43.5568C41.9104 42.584 41.296 42.0976 40.4256 42.0976H39.0048C38.5952 42.0976 38.2496 42.2512 37.968 42.5584L34.9728 45.6304ZM28.1376 63.6016H20.9568C20.5472 63.6016 20.2016 63.4608 19.92 63.1792C19.6384 62.8976 19.4976 62.552 19.4976 62.1424V38.1808C19.4976 37.7712 19.6384 37.4256 19.92 37.144C20.2016 36.8624 20.5472 36.7216 20.9568 36.7216H26.5248C26.9088 36.7216 27.2416 36.8624 27.5232 37.144C27.8304 37.4256 27.984 37.7712 27.984 38.1808V40.6384C27.984 41.3808 27.5744 41.8672 26.7552 42.0976C26.2688 42.2256 26.0256 42.4944 26.0256 42.904V53.6944C26.0256 54.1296 26.3072 54.3984 26.8704 54.5008H28.368C29.2128 54.7568 29.6352 55.2432 29.6352 55.96V62.1424C29.6352 62.552 29.4816 62.8976 29.1744 63.1792C28.8928 63.4608 28.5472 63.6016 28.1376 63.6016Z"/>
</mask>
<path d="M34.9728 45.6304C34.6912 45.912 34.5504 46.2448 34.5504 46.6288V47.9344H40.3104C42.6656 47.9344 44.6752 48.7792 46.3392 50.4688C48.0288 52.1328 48.8736 54.1424 48.8736 56.4976V62.104C48.8736 62.9488 48.3872 63.448 47.4144 63.6016H41.2704C40.8608 63.6016 40.5024 63.4608 40.1952 63.1792C39.9136 62.872 39.7728 62.5136 39.7728 62.104V55.2304C39.7728 54.7184 39.5936 54.2832 39.2352 53.9248C38.8768 53.5408 38.4416 53.3488 37.9296 53.3488H29.0976C28.4832 53.3488 28.112 52.9776 27.984 52.2352V46.7824C27.984 46.3984 28.1248 46.0528 28.4064 45.7456L37.0464 37.1824C37.328 36.8752 37.6736 36.7216 38.0832 36.7216H47.4144C48.2336 36.7216 48.72 37.2208 48.8736 38.2192V43.1728C48.8736 43.5824 48.7328 43.9408 48.4512 44.248C48.1696 44.5296 47.824 44.6704 47.4144 44.6704H43.728C43.0368 44.6704 42.5504 44.2992 42.2688 43.5568C41.9104 42.584 41.296 42.0976 40.4256 42.0976H39.0048C38.5952 42.0976 38.2496 42.2512 37.968 42.5584L34.9728 45.6304ZM28.1376 63.6016H20.9568C20.5472 63.6016 20.2016 63.4608 19.92 63.1792C19.6384 62.8976 19.4976 62.552 19.4976 62.1424V38.1808C19.4976 37.7712 19.6384 37.4256 19.92 37.144C20.2016 36.8624 20.5472 36.7216 20.9568 36.7216H26.5248C26.9088 36.7216 27.2416 36.8624 27.5232 37.144C27.8304 37.4256 27.984 37.7712 27.984 38.1808V40.6384C27.984 41.3808 27.5744 41.8672 26.7552 42.0976C26.2688 42.2256 26.0256 42.4944 26.0256 42.904V53.6944C26.0256 54.1296 26.3072 54.3984 26.8704 54.5008H28.368C29.2128 54.7568 29.6352 55.2432 29.6352 55.96V62.1424C29.6352 62.552 29.4816 62.8976 29.1744 63.1792C28.8928 63.4608 28.5472 63.6016 28.1376 63.6016Z" fill="#263238"/>
<path d="M34.9728 45.6304L35.5385 46.1961L35.5456 46.1888L34.9728 45.6304ZM34.5504 47.9344H33.7504V48.7344H34.5504V47.9344ZM46.3392 50.4688L45.7691 51.0302L45.7778 51.0387L46.3392 50.4688ZM47.4144 63.6016V64.4016H47.4772L47.5392 64.3918L47.4144 63.6016ZM40.1952 63.1792L39.6055 63.7197L39.629 63.7454L39.6546 63.7689L40.1952 63.1792ZM39.2352 53.9248L38.6504 54.4706L38.6598 54.4807L38.6695 54.4904L39.2352 53.9248ZM27.984 52.2352H27.184V52.3036L27.1956 52.3711L27.984 52.2352ZM28.4064 45.7456L27.8432 45.1774L27.8296 45.1909L27.8167 45.205L28.4064 45.7456ZM37.0464 37.1824L37.6096 37.7506L37.6232 37.7371L37.6361 37.7229L37.0464 37.1824ZM48.8736 38.2192H49.6736V38.158L49.6643 38.0975L48.8736 38.2192ZM48.4512 44.248L49.0169 44.8136L49.0292 44.8014L49.0409 44.7885L48.4512 44.248ZM42.2688 43.5568L41.5181 43.8333L41.5208 43.8405L42.2688 43.5568ZM37.968 42.5584L38.5408 43.1168L38.5494 43.108L38.5577 43.0989L37.968 42.5584ZM19.92 63.1792L19.3543 63.7448H19.3543L19.92 63.1792ZM19.92 37.144L20.4857 37.7096L20.4857 37.7096L19.92 37.144ZM27.5232 37.144L26.9575 37.7096L26.9698 37.7219L26.9826 37.7337L27.5232 37.144ZM26.7552 42.0976L26.9588 42.8713L26.9718 42.8677L26.7552 42.0976ZM26.8704 54.5008L26.7273 55.2879L26.7983 55.3008H26.8704V54.5008ZM28.368 54.5008L28.6 53.7351L28.4866 53.7008H28.368V54.5008ZM29.1744 63.1792L28.6338 62.5894L28.621 62.6012L28.6087 62.6135L29.1744 63.1792ZM34.9728 45.6304L34.4071 45.0647C33.9817 45.4901 33.7504 46.024 33.7504 46.6288H34.5504H35.3504C35.3504 46.4656 35.4007 46.3338 35.5385 46.196L34.9728 45.6304ZM34.5504 46.6288H33.7504V47.9344H34.5504H35.3504V46.6288H34.5504ZM34.5504 47.9344V48.7344H40.3104V47.9344V47.1344H34.5504V47.9344ZM40.3104 47.9344V48.7344C42.4497 48.7344 44.2544 49.492 45.7692 51.0301L46.3392 50.4688L46.9092 49.9074C45.096 48.0663 42.8815 47.1344 40.3104 47.1344V47.9344ZM46.3392 50.4688L45.7778 51.0387C47.316 52.5536 48.0736 54.3583 48.0736 56.4976H48.8736H49.6736C49.6736 53.9264 48.7416 51.712 46.9006 49.8988L46.3392 50.4688ZM48.8736 56.4976H48.0736V62.104H48.8736H49.6736V56.4976H48.8736ZM48.8736 62.104H48.0736C48.0736 62.3648 48.0037 62.484 47.9358 62.5537C47.8538 62.6378 47.674 62.7507 47.2896 62.8114L47.4144 63.6016L47.5392 64.3918C48.1276 64.2989 48.6774 64.0853 49.0818 63.6703C49.5003 63.2407 49.6736 62.6879 49.6736 62.104H48.8736ZM47.4144 63.6016V62.8016H41.2704V63.6016V64.4016H47.4144V63.6016ZM41.2704 63.6016V62.8016C41.0648 62.8016 40.8983 62.7384 40.7358 62.5894L40.1952 63.1792L39.6546 63.7689C40.1065 64.1831 40.6568 64.4016 41.2704 64.4016V63.6016ZM40.1952 63.1792L40.7849 62.6386C40.636 62.4761 40.5728 62.3096 40.5728 62.104H39.7728H38.9728C38.9728 62.7175 39.1912 63.2678 39.6055 63.7197L40.1952 63.1792ZM39.7728 62.104H40.5728V55.2304H39.7728H38.9728V62.104H39.7728ZM39.7728 55.2304H40.5728C40.5728 54.5086 40.311 53.8692 39.8009 53.3591L39.2352 53.9248L38.6695 54.4904C38.8762 54.6971 38.9728 54.9281 38.9728 55.2304H39.7728ZM39.2352 53.9248L39.82 53.3789C39.3148 52.8376 38.6698 52.5488 37.9296 52.5488V53.3488V54.1488C38.2134 54.1488 38.4388 54.244 38.6504 54.4706L39.2352 53.9248ZM37.9296 53.3488V52.5488H29.0976V53.3488V54.1488H37.9296V53.3488ZM29.0976 53.3488V52.5488C28.9636 52.5488 28.9342 52.5148 28.9241 52.5047C28.8961 52.4767 28.82 52.3756 28.7724 52.0992L27.984 52.2352L27.1956 52.3711C27.276 52.8371 27.4495 53.2928 27.7927 53.636C28.1538 53.9972 28.6172 54.1488 29.0976 54.1488V53.3488ZM27.984 52.2352H28.784V46.7824H27.984H27.184V52.2352H27.984ZM27.984 46.7824H28.784C28.784 46.6163 28.8372 46.4595 28.9961 46.2861L28.4064 45.7456L27.8167 45.205C27.4124 45.646 27.184 46.1804 27.184 46.7824H27.984ZM28.4064 45.7456L28.9696 46.3138L37.6096 37.7506L37.0464 37.1824L36.4832 36.6142L27.8432 45.1774L28.4064 45.7456ZM37.0464 37.1824L37.6361 37.7229C37.7692 37.5778 37.9023 37.5216 38.0832 37.5216V36.7216V35.9216C37.4449 35.9216 36.8868 36.1726 36.4567 36.6418L37.0464 37.1824ZM38.0832 36.7216V37.5216H47.4144V36.7216V35.9216H38.0832V36.7216ZM47.4144 36.7216V37.5216C47.6492 37.5216 47.7543 37.5862 47.8206 37.6543C47.9059 37.7418 48.0205 37.9354 48.0829 38.3408L48.8736 38.2192L49.6643 38.0975C49.5731 37.5045 49.3677 36.9493 48.9666 36.5377C48.5465 36.1065 47.9988 35.9216 47.4144 35.9216V36.7216ZM48.8736 38.2192H48.0736V43.1728H48.8736H49.6736V38.2192H48.8736ZM48.8736 43.1728H48.0736C48.0736 43.3784 48.0104 43.5449 47.8615 43.7074L48.4512 44.248L49.0409 44.7885C49.4552 44.3366 49.6736 43.7863 49.6736 43.1728H48.8736ZM48.4512 44.248L47.8855 43.6823C47.7587 43.8091 47.6186 43.8704 47.4144 43.8704V44.6704V45.4704C48.0294 45.4704 48.5805 45.25 49.0169 44.8136L48.4512 44.248ZM47.4144 44.6704V43.8704H43.728V44.6704V45.4704H47.4144V44.6704ZM43.728 44.6704V43.8704C43.5339 43.8704 43.4161 43.8216 43.3301 43.756C43.2361 43.6843 43.1201 43.5455 43.0168 43.273L42.2688 43.5568L41.5208 43.8405C41.6991 44.3105 41.9671 44.7285 42.3595 45.0279C42.7599 45.3336 43.2309 45.4704 43.728 45.4704V44.6704ZM42.2688 43.5568L43.0195 43.2802C42.8054 42.6992 42.4899 42.1946 42.0358 41.8351C41.5715 41.4676 41.0199 41.2976 40.4256 41.2976V42.0976V42.8976C40.7017 42.8976 40.8925 42.9707 41.0426 43.0896C41.2029 43.2165 41.3738 43.4415 41.5181 43.8333L42.2688 43.5568ZM40.4256 42.0976V41.2976H39.0048V42.0976V42.8976H40.4256V42.0976ZM39.0048 42.0976V41.2976C38.3665 41.2976 37.8084 41.5486 37.3783 42.0178L37.968 42.5584L38.5577 43.0989C38.6908 42.9538 38.8239 42.8976 39.0048 42.8976V42.0976ZM37.968 42.5584L37.3952 41.9999L34.4 45.0719L34.9728 45.6304L35.5456 46.1888L38.5408 43.1168L37.968 42.5584ZM28.1376 63.6016V62.8016H20.9568V63.6016V64.4016H28.1376V63.6016ZM20.9568 63.6016V62.8016C20.7526 62.8016 20.6125 62.7403 20.4857 62.6135L19.92 63.1792L19.3543 63.7448C19.7907 64.1812 20.3418 64.4016 20.9568 64.4016V63.6016ZM19.92 63.1792L20.4857 62.6135C20.3588 62.4866 20.2976 62.3466 20.2976 62.1424H19.4976H18.6976C18.6976 62.7574 18.918 63.3085 19.3543 63.7448L19.92 63.1792ZM19.4976 62.1424H20.2976V38.1808H19.4976H18.6976V62.1424H19.4976ZM19.4976 38.1808H20.2976C20.2976 37.9766 20.3588 37.8365 20.4857 37.7096L19.92 37.144L19.3543 36.5783C18.918 37.0146 18.6976 37.5658 18.6976 38.1808H19.4976ZM19.92 37.144L20.4857 37.7096C20.6125 37.5828 20.7526 37.5216 20.9568 37.5216V36.7216V35.9216C20.3418 35.9216 19.7907 36.1419 19.3543 36.5783L19.92 37.144ZM20.9568 36.7216V37.5216H26.5248V36.7216V35.9216H20.9568V36.7216ZM26.5248 36.7216V37.5216C26.688 37.5216 26.8197 37.5719 26.9575 37.7096L27.5232 37.144L28.0889 36.5783C27.6635 36.1529 27.1296 35.9216 26.5248 35.9216V36.7216ZM27.5232 37.144L26.9826 37.7337C27.1278 37.8668 27.184 37.9998 27.184 38.1808H27.984H28.784C28.784 37.5425 28.533 36.9844 28.0638 36.5542L27.5232 37.144ZM27.984 38.1808H27.184V40.6384H27.984H28.784V38.1808H27.984ZM27.984 40.6384H27.184C27.184 40.8542 27.1284 40.9692 27.0649 41.0447C26.993 41.13 26.8451 41.2412 26.5386 41.3274L26.7552 42.0976L26.9718 42.8677C27.4845 42.7235 27.951 42.4763 28.2887 42.0753C28.6348 41.6643 28.784 41.1649 28.784 40.6384H27.984ZM26.7552 42.0976L26.5516 41.3239C26.2144 41.4126 25.8736 41.5724 25.6148 41.8584C25.3426 42.1592 25.2256 42.5285 25.2256 42.904H26.0256H26.8256C26.8256 42.8812 26.8289 42.8803 26.8243 42.8931C26.8191 42.9075 26.8102 42.922 26.8012 42.9319C26.7856 42.9492 26.8096 42.9105 26.9588 42.8712L26.7552 42.0976ZM26.0256 42.904H25.2256V53.6944H26.0256H26.8256V42.904H26.0256ZM26.0256 53.6944H25.2256C25.2256 54.1022 25.366 54.4971 25.6844 54.801C25.9799 55.0831 26.3602 55.2211 26.7273 55.2879L26.8704 54.5008L27.0135 53.7137C26.9201 53.6967 26.8592 53.6764 26.8226 53.6603C26.7868 53.6446 26.7811 53.6359 26.7892 53.6437C26.7994 53.6534 26.8127 53.6711 26.8212 53.6924C26.8289 53.7119 26.8256 53.7163 26.8256 53.6944H26.0256ZM26.8704 54.5008V55.3008H28.368V54.5008V53.7008H26.8704V54.5008ZM28.368 54.5008L28.136 55.2664C28.4657 55.3663 28.6322 55.4875 28.7144 55.5821C28.7847 55.6631 28.8352 55.771 28.8352 55.96H29.6352H30.4352C30.4352 55.4321 30.2745 54.9384 29.9224 54.533C29.5822 54.1412 29.1151 53.8912 28.6 53.7351L28.368 54.5008ZM29.6352 55.96H28.8352V62.1424H29.6352H30.4352V55.96H29.6352ZM29.6352 62.1424H28.8352C28.8352 62.3233 28.779 62.4564 28.6338 62.5894L29.1744 63.1792L29.715 63.7689C30.1842 63.3388 30.4352 62.7806 30.4352 62.1424H29.6352ZM29.1744 63.1792L28.6087 62.6135C28.4819 62.7403 28.3418 62.8016 28.1376 62.8016V63.6016V64.4016C28.7526 64.4016 29.3037 64.1812 29.7401 63.7448L29.1744 63.1792Z" fill="#F8875E" mask="url(#path-1-outside-1_5446_17204)"/>
<mask id="path-3-outside-2_5446_17204" maskUnits="userSpaceOnUse" x="53.1953" y="35.6016" width="28" height="29" fill="black">
<rect fill="white" x="53.1953" y="35.6016" width="28" height="29"/>
<path d="M77.9249 63.6016H62.6417C60.2865 63.6016 58.2641 62.7696 56.5745 61.1056C54.9105 59.416 54.0785 57.3936 54.0785 55.0384V44.9008C54.0785 44.4912 54.2321 44.1456 54.5393 43.864L61.2209 37.1824C61.5025 36.8752 61.8481 36.7216 62.2577 36.7216H77.9249C78.3345 36.7216 78.6801 36.8752 78.9617 37.1824C79.2689 37.464 79.4225 37.8096 79.4225 38.2192V43.1728C79.4225 43.5824 79.2689 43.9408 78.9617 44.248C78.6801 44.5296 78.3345 44.6704 77.9249 44.6704H74.2769C73.5601 44.6704 73.0737 44.2992 72.8177 43.5568C72.4593 42.584 71.8321 42.0976 70.9361 42.0976H62.5649C62.0529 42.0976 61.6049 42.2896 61.2209 42.6736C60.8369 43.0576 60.6449 43.5184 60.6449 44.056V52.6192C60.6449 53.1312 60.8241 53.5792 61.1825 53.9632C61.5409 54.3216 61.9761 54.5008 62.4881 54.5008H74.0081V52.8496H64.5233C64.1137 52.8496 63.7553 52.7088 63.4481 52.4272C63.1665 52.1456 63.0257 51.8 63.0257 51.3904V48.9712C63.0257 48.5616 63.1665 48.216 63.4481 47.9344C63.7553 47.6272 64.1265 47.4736 64.5617 47.4736H75.1985C75.6081 47.4736 75.9537 47.6144 76.2353 47.896L79.0001 50.6608C79.2817 50.9424 79.4225 51.288 79.4225 51.6976V62.104C79.4225 62.9488 78.9233 63.448 77.9249 63.6016Z"/>
</mask>
<path d="M77.9249 63.6016H62.6417C60.2865 63.6016 58.2641 62.7696 56.5745 61.1056C54.9105 59.416 54.0785 57.3936 54.0785 55.0384V44.9008C54.0785 44.4912 54.2321 44.1456 54.5393 43.864L61.2209 37.1824C61.5025 36.8752 61.8481 36.7216 62.2577 36.7216H77.9249C78.3345 36.7216 78.6801 36.8752 78.9617 37.1824C79.2689 37.464 79.4225 37.8096 79.4225 38.2192V43.1728C79.4225 43.5824 79.2689 43.9408 78.9617 44.248C78.6801 44.5296 78.3345 44.6704 77.9249 44.6704H74.2769C73.5601 44.6704 73.0737 44.2992 72.8177 43.5568C72.4593 42.584 71.8321 42.0976 70.9361 42.0976H62.5649C62.0529 42.0976 61.6049 42.2896 61.2209 42.6736C60.8369 43.0576 60.6449 43.5184 60.6449 44.056V52.6192C60.6449 53.1312 60.8241 53.5792 61.1825 53.9632C61.5409 54.3216 61.9761 54.5008 62.4881 54.5008H74.0081V52.8496H64.5233C64.1137 52.8496 63.7553 52.7088 63.4481 52.4272C63.1665 52.1456 63.0257 51.8 63.0257 51.3904V48.9712C63.0257 48.5616 63.1665 48.216 63.4481 47.9344C63.7553 47.6272 64.1265 47.4736 64.5617 47.4736H75.1985C75.6081 47.4736 75.9537 47.6144 76.2353 47.896L79.0001 50.6608C79.2817 50.9424 79.4225 51.288 79.4225 51.6976V62.104C79.4225 62.9488 78.9233 63.448 77.9249 63.6016Z" fill="#263238"/>
<path d="M77.9249 63.6016V64.4016H77.9861L78.0466 64.3923L77.9249 63.6016ZM56.5745 61.1056L56.0045 61.667L56.0132 61.6755L56.5745 61.1056ZM54.5393 43.864L55.0799 44.4537L55.0927 44.4419L55.105 44.4296L54.5393 43.864ZM61.2209 37.1824L61.7866 37.748L61.7989 37.7358L61.8106 37.7229L61.2209 37.1824ZM78.9617 37.1824L78.372 37.7229L78.3955 37.7486L78.4211 37.7721L78.9617 37.1824ZM72.8177 43.5568L73.574 43.296L73.5713 43.2881L73.5684 43.2802L72.8177 43.5568ZM61.1825 53.9632L60.5977 54.509L60.6071 54.5191L60.6168 54.5288L61.1825 53.9632ZM74.0081 54.5008V55.3008H74.8081V54.5008H74.0081ZM74.0081 52.8496H74.8081V52.0496H74.0081V52.8496ZM63.4481 52.4272L62.8824 52.9928L62.8947 53.0051L62.9075 53.0169L63.4481 52.4272ZM76.2353 47.896L75.6696 48.4616V48.4616L76.2353 47.896ZM79.0001 50.6608L79.5658 50.0951L79.5658 50.0951L79.0001 50.6608ZM77.9249 63.6016V62.8016H62.6417V63.6016V64.4016H77.9249V63.6016ZM62.6417 63.6016V62.8016C60.4982 62.8016 58.677 62.0533 57.1359 60.5356L56.5745 61.1056L56.0132 61.6755C57.8513 63.4858 60.0748 64.4016 62.6417 64.4016V63.6016ZM56.5745 61.1056L57.1445 60.5442C55.6268 59.0031 54.8785 57.1819 54.8785 55.0384H54.0785H53.2785C53.2785 57.6052 54.1943 59.8288 56.0045 61.6669L56.5745 61.1056ZM54.0785 55.0384H54.8785V44.9008H54.0785H53.2785V55.0384H54.0785ZM54.0785 44.9008H54.8785C54.8785 44.7198 54.9347 44.5868 55.0799 44.4537L54.5393 43.864L53.9987 43.2742C53.5295 43.7044 53.2785 44.2625 53.2785 44.9008H54.0785ZM54.5393 43.864L55.105 44.4296L61.7866 37.748L61.2209 37.1824L60.6552 36.6167L53.9736 43.2983L54.5393 43.864ZM61.2209 37.1824L61.8106 37.7229C61.9437 37.5778 62.0768 37.5216 62.2577 37.5216V36.7216V35.9216C61.6195 35.9216 61.0613 36.1726 60.6312 36.6418L61.2209 37.1824ZM62.2577 36.7216V37.5216H77.9249V36.7216V35.9216H62.2577V36.7216ZM77.9249 36.7216V37.5216C78.1059 37.5216 78.2389 37.5778 78.372 37.7229L78.9617 37.1824L79.5514 36.6418C79.1213 36.1726 78.5632 35.9216 77.9249 35.9216V36.7216ZM78.9617 37.1824L78.4211 37.7721C78.5663 37.9052 78.6225 38.0382 78.6225 38.2192H79.4225H80.2225C80.2225 37.5809 79.9715 37.0228 79.5023 36.5926L78.9617 37.1824ZM79.4225 38.2192H78.6225V43.1728H79.4225H80.2225V38.2192H79.4225ZM79.4225 43.1728H78.6225C78.6225 43.3563 78.5633 43.515 78.396 43.6823L78.9617 44.248L79.5274 44.8136C79.9745 44.3665 80.2225 43.8084 80.2225 43.1728H79.4225ZM78.9617 44.248L78.396 43.6823C78.2692 43.8091 78.1291 43.8704 77.9249 43.8704V44.6704V45.4704C78.5399 45.4704 79.091 45.25 79.5274 44.8136L78.9617 44.248ZM77.9249 44.6704V43.8704H74.2769V44.6704V45.4704H77.9249V44.6704ZM74.2769 44.6704V43.8704C74.0627 43.8704 73.9407 43.8177 73.8599 43.756C73.7731 43.6898 73.6651 43.5601 73.574 43.296L72.8177 43.5568L72.0614 43.8176C72.2263 44.2958 72.4895 44.7229 72.8892 45.0279C73.2947 45.3374 73.7744 45.4704 74.2769 45.4704V44.6704ZM72.8177 43.5568L73.5684 43.2802C73.3529 42.6954 73.0319 42.1893 72.5688 41.8302C72.097 41.4643 71.5376 41.2976 70.9361 41.2976V42.0976V42.8976C71.2307 42.8976 71.4328 42.974 71.5883 43.0945C71.7523 43.2218 71.9241 43.4453 72.067 43.8333L72.8177 43.5568ZM70.9361 42.0976V41.2976H62.5649V42.0976V42.8976H70.9361V42.0976ZM62.5649 42.0976V41.2976C61.8269 41.2976 61.1792 41.5839 60.6552 42.1079L61.2209 42.6736L61.7866 43.2392C62.0307 42.9952 62.279 42.8976 62.5649 42.8976V42.0976ZM61.2209 42.6736L60.6552 42.1079C60.1229 42.6402 59.8449 43.3038 59.8449 44.056H60.6449H61.4449C61.4449 43.7329 61.5509 43.4749 61.7866 43.2392L61.2209 42.6736ZM60.6449 44.056H59.8449V52.6192H60.6449H61.4449V44.056H60.6449ZM60.6449 52.6192H59.8449C59.8449 53.3395 60.105 53.9811 60.5977 54.509L61.1825 53.9632L61.7674 53.4173C61.5432 53.1772 61.4449 52.9228 61.4449 52.6192H60.6449ZM61.1825 53.9632L60.6168 54.5288C61.127 55.039 61.7664 55.3008 62.4881 55.3008V54.5008V53.7008C62.1859 53.7008 61.9549 53.6041 61.7482 53.3975L61.1825 53.9632ZM62.4881 54.5008V55.3008H74.0081V54.5008V53.7008H62.4881V54.5008ZM74.0081 54.5008H74.8081V52.8496H74.0081H73.2081V54.5008H74.0081ZM74.0081 52.8496V52.0496H64.5233V52.8496V53.6496H74.0081V52.8496ZM64.5233 52.8496V52.0496C64.3177 52.0496 64.1512 51.9864 63.9887 51.8374L63.4481 52.4272L62.9075 53.0169C63.3594 53.4311 63.9097 53.6496 64.5233 53.6496V52.8496ZM63.4481 52.4272L64.0138 51.8615C63.8869 51.7346 63.8257 51.5946 63.8257 51.3904H63.0257H62.2257C62.2257 52.0054 62.4461 52.5565 62.8824 52.9928L63.4481 52.4272ZM63.0257 51.3904H63.8257V48.9712H63.0257H62.2257V51.3904H63.0257ZM63.0257 48.9712H63.8257C63.8257 48.767 63.8869 48.6269 64.0138 48.5L63.4481 47.9344L62.8824 47.3687C62.4461 47.805 62.2257 48.3562 62.2257 48.9712H63.0257ZM63.4481 47.9344L64.0138 48.5C64.1707 48.3432 64.3383 48.2736 64.5617 48.2736V47.4736V46.6736C63.9148 46.6736 63.3399 46.9112 62.8824 47.3687L63.4481 47.9344ZM64.5617 47.4736V48.2736H75.1985V47.4736V46.6736H64.5617V47.4736ZM75.1985 47.4736V48.2736C75.4027 48.2736 75.5428 48.3348 75.6696 48.4616L76.2353 47.896L76.801 47.3303C76.3646 46.8939 75.8135 46.6736 75.1985 46.6736V47.4736ZM76.2353 47.896L75.6696 48.4616L78.4344 51.2264L79.0001 50.6608L79.5658 50.0951L76.801 47.3303L76.2353 47.896ZM79.0001 50.6608L78.4344 51.2264C78.5613 51.3533 78.6225 51.4934 78.6225 51.6976H79.4225H80.2225C80.2225 51.0826 80.0021 50.5314 79.5658 50.0951L79.0001 50.6608ZM79.4225 51.6976H78.6225V62.104H79.4225H80.2225V51.6976H79.4225ZM79.4225 62.104H78.6225C78.6225 62.3589 78.5531 62.4756 78.4824 62.5463C78.395 62.6337 78.2042 62.7492 77.8033 62.8109L77.9249 63.6016L78.0466 64.3923C78.644 64.3003 79.202 64.0895 79.6138 63.6776C80.0423 63.2491 80.2225 62.6938 80.2225 62.104H79.4225Z" fill="#F8875E" mask="url(#path-3-outside-2_5446_17204)"/>
<circle cx="50" cy="50" r="48.8" stroke="#F8875E" stroke-width="1.6"/>
</svg>
